<svg xmlns="http://www.w3.org/2000/svg" viewBox="0 0 276.68 53.35"><defs><style>.e969fda2-6bc3-4757-bae9-59da3e197d18{fill:#1e789b;}</style></defs><title>Ресурс 1</title><g id="716cf5ae-821f-4581-b3c8-296c7dc443bc" data-name="Слой 2"><g id="e43a8a73-b695-4b0c-bb7e-0a392e261d7f" data-name="Слой 1"><path class="e969fda2-6bc3-4757-bae9-59da3e197d18" d="M3,11.16h8.18V63.24H3Z" transform="translate(-2.98 -10.56)"/><path class="e969fda2-6bc3-4757-bae9-59da3e197d18" d="M43.6,63.24H35.34l-1.41-9.45h-10l-1.41,9.45H15l8.34-52.08h12ZM24.92,46.72h7.89L28.87,20.38Z" transform="translate(-2.98 -10.56)"/><path class="e969fda2-6bc3-4757-bae9-59da3e197d18" d="M64.5,63.24c-.44-1.34-.74-2.16-.74-6.4V48.65c0-4.83-1.64-6.62-5.36-6.62H55.57V63.24H47.39V11.16H59.74c8.48,0,12.13,3.94,12.13,12v4.1c0,5.35-1.71,8.85-5.36,10.56,4.09,1.71,5.43,5.66,5.43,11.09v8a15.35,15.35,0,0,0,.9,6.33ZM55.57,18.6v16h3.2c3,0,4.91-1.34,4.91-5.5V24c0-3.72-1.26-5.35-4.16-5.35Z" transform="translate(-2.98 -10.56)"/><path class="e969fda2-6bc3-4757-bae9-59da3e197d18" d="M77.3,11.16H90.24c8.19,0,12.21,4.53,12.21,12.87V50.37c0,8.33-4,12.87-12.21,12.87H77.3Zm8.18,7.44V55.8h4.61c2.61,0,4.17-1.34,4.17-5.06V23.65c0-3.71-1.56-5-4.17-5Z" transform="translate(-2.98 -10.56)"/><path class="e969fda2-6bc3-4757-bae9-59da3e197d18" d="M115.46,11.16V51.33c0,3.72,1.64,5.06,4.24,5.06s4.24-1.34,4.24-5.06V11.16h7.74V50.81c0,8.33-4.16,13.1-12.2,13.1s-12.2-4.77-12.2-13.1V11.16Z" transform="translate(-2.98 -10.56)"/><path class="e969fda2-6bc3-4757-bae9-59da3e197d18" d="M137.26,11.16h8.18V63.24h-8.18Z" transform="translate(-2.98 -10.56)"/><path class="e969fda2-6bc3-4757-bae9-59da3e197d18" d="M158.69,25.52V63.24h-7.37V11.16h10.27L170,42.33V11.16h7.29V63.24h-8.41Z" transform="translate(-2.98 -10.56)"/><path class="e969fda2-6bc3-4757-bae9-59da3e197d18" d="M182.49,23.65c0-8.33,4.39-13.09,12.43-13.09s12.42,4.76,12.42,13.09V50.74c0,8.33-4.39,13.09-12.42,13.09s-12.43-4.76-12.43-13.09Zm8.19,27.61c0,3.72,1.63,5.13,4.24,5.13s4.24-1.41,4.24-5.13V23.13c0-3.72-1.64-5.13-4.24-5.13s-4.24,1.41-4.24,5.13Z" transform="translate(-2.98 -10.56)"/><path class="e969fda2-6bc3-4757-bae9-59da3e197d18" d="M219.77,55.35v7.89h-7.89V55.35Z" transform="translate(-2.98 -10.56)"/><path class="e969fda2-6bc3-4757-bae9-59da3e197d18" d="M242.83,63.24c-.45-1.34-.75-2.16-.75-6.4V48.65c0-4.83-1.63-6.62-5.35-6.62H233.9V63.24h-8.18V11.16h12.35c8.48,0,12.12,3.94,12.12,12v4.1c0,5.35-1.71,8.85-5.35,10.56,4.09,1.71,5.43,5.66,5.43,11.09v8a15.35,15.35,0,0,0,.89,6.33ZM233.9,18.6v16h3.2c3.05,0,4.91-1.34,4.91-5.5V24c0-3.72-1.26-5.35-4.17-5.35Z" transform="translate(-2.98 -10.56)"/><path class="e969fda2-6bc3-4757-bae9-59da3e197d18" d="M263.44,11.16V51.33c0,3.72,1.63,5.06,4.24,5.06s4.24-1.34,4.24-5.06V11.16h7.73V50.81c0,8.33-4.16,13.1-12.2,13.1s-12.2-4.77-12.2-13.1V11.16Z" transform="translate(-2.98 -10.56)"/></g></g></svg>